<?xml version="1.0" encoding="utf-8"?>
<!-- Generator: Adobe Illustrator 23.0.5, SVG Export Plug-In . SVG Version: 6.00 Build 0)  -->
<svg version="1.1" id="Capa_1" xmlns="http://www.w3.org/2000/svg" xmlns:xlink="http://www.w3.org/1999/xlink" x="0px" y="0px"
	 viewBox="0 0 511 518" style="enable-background:new 0 0 511 518;" xml:space="preserve" width="60" height="60">
<style type="text/css">
	.st0{fill:#FFFFFF;}
</style>
<g>
	<g>
		<path class="st0" d="M395.4,52.8l-3.5-4.1l-1,0l-0.3,0L312.3,49c0,0.2,0,0.3,0,0.5c0.1,31.8-25.6,57.6-57.3,57.7
			c-31.8,0.1-57.6-25.6-57.7-57.3c0-0.2,0-0.3,0-0.5L120,49.6l-0.2,0l-1.1,0l-2.3,2.7l-101,120.2l77.6,65.2l23.9-28.5l0.8,250.4
			l279-0.9l-0.8-249l22.9,26.9l77.2-65.7L395.4,52.8z"/>
	</g>
	<g>
		<path d="M183.7,244.3l48-22.3v10.6l-36.3,15.9v0.2l36.3,15.9v10.6l-48-22.3V244.3z"/>
		<path d="M239.1,279.2l21.4-72.5h10.1l-21.4,72.5H239.1z"/>
		<path d="M324.4,253.2l-48,22v-10.6l37.1-15.9v-0.2l-37.1-15.9V222l48,22V253.2z"/>
	</g>
</g>
</svg>
